# xmcd
#
# Track frame offsets:
#	150
#	11474
#	34437
#	66794
#	82272
#	99998
#	124305
#	142937
#	160093
#	177495
#	192416
#	210775
#	228955
#	245814
#	266791
#	277414
#	292158
#	315750
#	332964
#
# Disc length: 4618 seconds
#
# Revision: 0
# Processed by: cddbd v1.5.2PL0 Copyright (c) Steve Scherf et al.
# Submitted via: SynApp - FreeCDDB Version: 2.5
#
DISCID=21120813
DTITLE=Rod Stewart - Mix 3
DYEAR=1980
DGENRE=Vocal
TTITLE0=Beach Boys - The Beach Boys    -    Surfin' U.S.A.
TTITLE1=Foreigner - Foreigner   -    I Wanna Know What Love Is
TTITLE2=Bob Marley and The Wailers - Bob Marley and the Wallers    -    No Woman No Cry
TTITLE3=Sweet, The - Sweet    -    Fox On the Run
TTITLE4=Art Garfunkel - Art Garfunkel    -    Bright Eyes
TTITLE5=Phil Collins - Phill Collins    -    Another Day In Paradise
TTITLE6=Mud - Mud    -    Rocket
TTITLE7=Steve Kekana - Steve Kekana     -     Raising My Family
TTITLE8=Rolling Stones - Rolling Stones    -    Satisfaction
TTITLE9=Status Quo - Status Quo    -    Wild Side Of Life
TTITLE10=Billy Swan    -    I Can Help
TTITLE11=Eros Ramazzotti - Eros Ramazzotti    -    Fuoco Nel Fuoco
TTITLE12=Nazareth - Nazareth    -    Gone Dead Train
TTITLE13=Peter Maffay - Halt dich an mir fest
TTITLE14=Byrds - Byrds    -    Mr. Tambourine Man
TTITLE15=Neil Diamond - Neil Diamond    -    Song Sung Blue
TTITLE16=Rod Stewart - Rod Stewart    -    Hot Legs
TTITLE17=Chris De Burgh - Chris de Burgh    -    When Winter Comes
TTITLE18=Liquido - Ordinary Life
EXTD=
EXTT0=
EXTT1=
EXTT2=
EXTT3=
EXTT4=
EXTT5=
EXTT6=
EXTT7=
EXTT8=
EXTT9=
EXTT10=
EXTT11=
EXTT12=
EXTT13=
EXTT14=
EXTT15=
EXTT16=
EXTT17=
EXTT18=
PLAYORDER=
